<svg width="101" height="28" viewBox="0 0 101 28" fill="none" xmlns="http://www.w3.org/2000/svg">
<path d="M5.3 19.16C4.35333 19.16 3.46 19.0533 2.62 18.84C1.79333 18.6267 1.15333 18.36 0.7 18.04L1.9 15.78C2.36667 16.0867 2.93333 16.3333 3.6 16.52C4.28 16.7067 4.96 16.8 5.64 16.8C6.37333 16.8 6.90667 16.7067 7.24 16.52C7.57333 16.3333 7.74 16.08 7.74 15.76C7.74 15.5067 7.6 15.32 7.32 15.2C7.04 15.0667 6.68667 14.96 6.26 14.88C5.83333 14.8 5.37333 14.7067 4.88 14.6C4.4 14.4933 3.94 14.3467 3.5 14.16C3.07333 13.96 2.72 13.68 2.44 13.32C2.17333 12.9467 2.04 12.46 2.04 11.86C2.04 11.0467 2.26667 10.36 2.72 9.8C3.18667 9.24 3.82667 8.81333 4.64 8.52C5.46667 8.22667 6.4 8.08 7.44 8.08C8.18667 8.08 8.91333 8.16 9.62 8.32C10.3267 8.48 10.9267 8.7 11.42 8.98L10.3 11.26C9.79333 10.94 9.26 10.7267 8.7 10.62C8.15333 10.5 7.62667 10.44 7.12 10.44C6.38667 10.44 5.85333 10.5467 5.52 10.76C5.2 10.96 5.04 11.2067 5.04 11.5C5.04 11.7533 5.17333 11.9533 5.44 12.1C5.72 12.2333 6.07333 12.3467 6.5 12.44C6.92667 12.52 7.38667 12.6133 7.88 12.72C8.37333 12.8133 8.83333 12.96 9.26 13.16C9.68667 13.3467 10.0333 13.62 10.3 13.98C10.58 14.3267 10.72 14.8 10.72 15.4C10.72 16.2133 10.48 16.9067 10 17.48C9.53333 18.04 8.89333 18.46 8.08 18.74C7.26667 19.02 6.34 19.16 5.3 19.16ZM27.645 8.08C28.5517 8.08 29.3183 8.27333 29.945 8.66C30.5717 9.03333 31.0183 9.58667 31.285 10.32C31.5517 11.0533 31.5717 11.96 31.345 13.04L30.165 19H27.045L28.185 13.26C28.3583 12.46 28.305 11.8467 28.025 11.42C27.745 10.9933 27.2583 10.78 26.565 10.78C25.8317 10.78 25.225 11 24.745 11.44C24.265 11.8667 23.9317 12.5467 23.745 13.48L22.645 19H19.525L20.665 13.26C20.825 12.46 20.765 11.8467 20.485 11.42C20.2183 10.9933 19.7383 10.78 19.045 10.78C18.3117 10.78 17.705 11 17.225 11.44C16.745 11.8667 16.405 12.56 16.205 13.52L15.125 19H12.005L14.145 8.24H17.105L16.545 10.98L16.065 10.36C16.5583 9.58667 17.1717 9.01333 17.905 8.64C18.6383 8.26667 19.4183 8.08 20.245 8.08C20.9117 8.08 21.5117 8.2 22.045 8.44C22.5783 8.68 23.0117 9.04 23.345 9.52C23.6917 9.98667 23.8917 10.5733 23.945 11.28L22.745 10.98C23.2783 10.0333 23.9583 9.31333 24.785 8.82C25.625 8.32667 26.5783 8.08 27.645 8.08ZM37.8806 19.16C37.054 19.16 36.2873 18.9733 35.5806 18.6C34.874 18.2133 34.3073 17.66 33.8806 16.94C33.454 16.22 33.2406 15.3533 33.2406 14.34C33.2406 13.4333 33.3873 12.6 33.6806 11.84C33.9873 11.08 34.414 10.42 34.9606 9.86C35.5073 9.3 36.1406 8.86667 36.8606 8.56C37.5806 8.24 38.354 8.08 39.1806 8.08C40.074 8.08 40.8406 8.24667 41.4806 8.58C42.1206 8.91333 42.594 9.43333 42.9006 10.14C43.2206 10.8333 43.334 11.7333 43.2406 12.84C43.174 14.1067 42.914 15.22 42.4606 16.18C42.0073 17.1267 41.394 17.86 40.6206 18.38C39.8606 18.9 38.9473 19.16 37.8806 19.16ZM38.8406 16.58C39.454 16.58 39.994 16.4333 40.4606 16.14C40.9406 15.8333 41.314 15.42 41.5806 14.9C41.8606 14.3667 42.0006 13.7467 42.0006 13.04C42.0006 12.3067 41.7806 11.7267 41.3406 11.3C40.914 10.8733 40.314 10.66 39.5406 10.66C38.9406 10.66 38.4006 10.8133 37.9206 11.12C37.4406 11.4133 37.0606 11.8267 36.7806 12.36C36.514 12.88 36.3806 13.4933 36.3806 14.2C36.3806 14.9333 36.594 15.5133 37.0206 15.94C37.4606 16.3667 38.0673 16.58 38.8406 16.58ZM40.9806 19L41.4006 16.86L42.1006 13.66L42.5206 10.46L42.9606 8.24H46.0806L43.9406 19H40.9806ZM62.4692 8.08C63.3759 8.08 64.1426 8.27333 64.7692 8.66C65.3959 9.03333 65.8426 9.58667 66.1092 10.32C66.3759 11.0533 66.3959 11.96 66.1692 13.04L64.9892 19H61.8692L63.0092 13.26C63.1826 12.46 63.1292 11.8467 62.8492 11.42C62.5692 10.9933 62.0826 10.78 61.3892 10.78C60.6559 10.78 60.0492 11 59.5692 11.44C59.0892 11.8667 58.7559 12.5467 58.5692 13.48L57.4692 19H54.3492L55.4892 13.26C55.6492 12.46 55.5892 11.8467 55.3092 11.42C55.0426 10.9933 54.5626 10.78 53.8692 10.78C53.1359 10.78 52.5292 11 52.0492 11.44C51.5692 11.8667 51.2292 12.56 51.0292 13.52L49.9492 19H46.8292L48.9692 8.24H51.9292L51.3692 10.98L50.8892 10.36C51.3826 9.58667 51.9959 9.01333 52.7292 8.64C53.4626 8.26667 54.2426 8.08 55.0692 8.08C55.7359 8.08 56.3359 8.2 56.8692 8.44C57.4026 8.68 57.8359 9.04 58.1692 9.52C58.5159 9.98667 58.7159 10.5733 58.7692 11.28L57.5692 10.98C58.1026 10.0333 58.7826 9.31333 59.6092 8.82C60.4492 8.32667 61.4026 8.08 62.4692 8.08Z" fill="#1789C8"/>
<path d="M13.268 26.042C12.89 26.042 12.5517 25.9603 12.253 25.797C11.959 25.6337 11.728 25.4097 11.56 25.125C11.392 24.8403 11.308 24.5137 11.308 24.145C11.308 23.7763 11.392 23.4497 11.56 23.165C11.728 22.8803 11.959 22.6587 12.253 22.5C12.5517 22.3367 12.89 22.255 13.268 22.255C13.604 22.255 13.9027 22.3227 14.164 22.458C14.43 22.5887 14.6353 22.7847 14.78 23.046L14.269 23.375C14.1477 23.193 13.9983 23.06 13.821 22.976C13.6483 22.8873 13.4617 22.843 13.261 22.843C13.0183 22.843 12.8013 22.8967 12.61 23.004C12.4187 23.1113 12.267 23.263 12.155 23.459C12.043 23.6503 11.987 23.879 11.987 24.145C11.987 24.411 12.043 24.642 12.155 24.838C12.267 25.034 12.4187 25.1857 12.61 25.293C12.8013 25.4003 13.0183 25.454 13.261 25.454C13.4617 25.454 13.6483 25.412 13.821 25.328C13.9983 25.2393 14.1477 25.104 14.269 24.922L14.78 25.244C14.6353 25.5007 14.43 25.699 14.164 25.839C13.9027 25.9743 13.604 26.042 13.268 26.042ZM16.3372 26V22.703L16.5052 22.878H14.9792V22.29H18.3672V22.878H16.8482L17.0092 22.703V26H16.3372ZM19.2433 27.4C19.066 27.4 18.8933 27.3697 18.7253 27.309C18.5573 27.253 18.4127 27.169 18.2913 27.057L18.5783 26.553C18.6717 26.6417 18.7743 26.7093 18.8863 26.756C18.9983 26.8027 19.1173 26.826 19.2433 26.826C19.4067 26.826 19.542 26.784 19.6493 26.7C19.7567 26.616 19.857 26.4667 19.9503 26.252L20.1813 25.741L20.2513 25.657L21.7073 22.29H22.3653L20.5663 26.371C20.459 26.6323 20.3377 26.8377 20.2023 26.987C20.0717 27.1363 19.927 27.2413 19.7683 27.302C19.6097 27.3673 19.4347 27.4 19.2433 27.4ZM20.1253 26.119L18.4313 22.29H19.1313L20.5733 25.594L20.1253 26.119ZM25.3959 25.685V22.878H23.7859L23.7509 23.592C23.7416 23.8253 23.7253 24.0517 23.7019 24.271C23.6833 24.4857 23.6506 24.684 23.6039 24.866C23.5619 25.048 23.4989 25.1973 23.4149 25.314C23.3309 25.4307 23.2189 25.503 23.0789 25.531L22.4139 25.412C22.5586 25.4167 22.6753 25.37 22.7639 25.272C22.8526 25.1693 22.9203 25.0293 22.9669 24.852C23.0183 24.6747 23.0556 24.474 23.0789 24.25C23.1023 24.0213 23.1209 23.7857 23.1349 23.543L23.1909 22.29H26.0679V25.685H25.3959ZM22.2669 26.861V25.412H26.6349V26.861H26.0049V26H22.9039V26.861H22.2669ZM27.5104 26V22.29H28.1824V24.992L30.4574 22.29H31.0664V26H30.3944V23.298L28.1264 26H27.5104ZM34.7437 26V24.698L34.8487 24.824H33.6657C33.1711 24.824 32.7837 24.719 32.5037 24.509C32.2284 24.299 32.0907 23.9933 32.0907 23.592C32.0907 23.1627 32.2377 22.8383 32.5317 22.619C32.8304 22.3997 33.2271 22.29 33.7217 22.29H35.3457V26H34.7437ZM32.0557 26L33.0637 24.579H33.7567L32.7767 26H32.0557ZM34.7437 24.488V22.689L34.8487 22.878H33.7427C33.4347 22.878 33.1967 22.9363 33.0287 23.053C32.8607 23.165 32.7767 23.3517 32.7767 23.613C32.7767 24.0983 33.0894 24.341 33.7147 24.341H34.8487L34.7437 24.488ZM38.5367 26V22.29H39.2297L40.8257 25.034H40.5457L42.1837 22.29H42.8137V26H42.2047V23.046L42.3167 23.109L40.8187 25.58H40.5247L39.0197 23.06L39.1527 23.032V26H38.5367ZM45.7737 26.042C45.377 26.042 45.027 25.9603 44.7237 25.797C44.425 25.6337 44.1917 25.4097 44.0237 25.125C43.8604 24.8403 43.7787 24.5137 43.7787 24.145C43.7787 23.7763 43.858 23.4497 44.0167 23.165C44.18 22.8803 44.4017 22.6587 44.6817 22.5C44.9664 22.3367 45.286 22.255 45.6407 22.255C46 22.255 46.3174 22.3343 46.5927 22.493C46.868 22.6517 47.0827 22.8757 47.2367 23.165C47.3954 23.4497 47.4747 23.7833 47.4747 24.166C47.4747 24.194 47.4724 24.2267 47.4677 24.264C47.4677 24.3013 47.4654 24.3363 47.4607 24.369H44.3037V23.886H47.1107L46.8377 24.054C46.8424 23.816 46.7934 23.6037 46.6907 23.417C46.588 23.2303 46.4457 23.0857 46.2637 22.983C46.0864 22.8757 45.8787 22.822 45.6407 22.822C45.4074 22.822 45.1997 22.8757 45.0177 22.983C44.8357 23.0857 44.6934 23.2327 44.5907 23.424C44.488 23.6107 44.4367 23.8253 44.4367 24.068V24.18C44.4367 24.4273 44.4927 24.649 44.6047 24.845C44.7214 25.0363 44.8824 25.1857 45.0877 25.293C45.293 25.4003 45.5287 25.454 45.7947 25.454C46.014 25.454 46.2124 25.4167 46.3897 25.342C46.5717 25.2673 46.7304 25.1553 46.8657 25.006L47.2367 25.44C47.0687 25.636 46.8587 25.7853 46.6067 25.888C46.3594 25.9907 46.0817 26.042 45.7737 26.042ZM50.2322 26.056C49.9242 26.056 49.6512 26.007 49.4132 25.909C49.1799 25.811 48.9792 25.6663 48.8112 25.475C48.6432 25.279 48.5149 25.034 48.4262 24.74C48.3422 24.4413 48.3002 24.0913 48.3002 23.69C48.3002 23.3727 48.3282 23.088 48.3842 22.836C48.4402 22.584 48.5195 22.36 48.6222 22.164C48.7295 21.968 48.8602 21.7977 49.0142 21.653C49.1729 21.5083 49.3502 21.3893 49.5462 21.296C49.7469 21.198 49.9662 21.1233 50.2042 21.072L51.8982 20.694L51.9962 21.317L50.4352 21.653C50.3419 21.6717 50.2299 21.6997 50.0992 21.737C49.9685 21.7743 49.8355 21.8327 49.7002 21.912C49.5649 21.9867 49.4389 22.0917 49.3222 22.227C49.2055 22.3623 49.1122 22.5397 49.0422 22.759C48.9722 22.9737 48.9372 23.2397 48.9372 23.557C48.9372 23.6457 48.9395 23.7133 48.9442 23.76C48.9489 23.8067 48.9535 23.8533 48.9582 23.9C48.9675 23.9467 48.9745 24.0167 48.9792 24.11L48.6992 23.823C48.7739 23.5663 48.8929 23.3423 49.0562 23.151C49.2195 22.9597 49.4155 22.8127 49.6442 22.71C49.8775 22.6027 50.1319 22.549 50.4072 22.549C50.7525 22.549 51.0582 22.6237 51.3242 22.773C51.5949 22.9223 51.8072 23.1277 51.9612 23.389C52.1152 23.6503 52.1922 23.949 52.1922 24.285C52.1922 24.6257 52.1105 24.9313 51.9472 25.202C51.7885 25.468 51.5622 25.678 51.2682 25.832C50.9742 25.9813 50.6289 26.056 50.2322 26.056ZM50.2952 25.496C50.5332 25.496 50.7432 25.4447 50.9252 25.342C51.1072 25.2347 51.2495 25.0923 51.3522 24.915C51.4549 24.733 51.5062 24.53 51.5062 24.306C51.5062 24.082 51.4549 23.8837 51.3522 23.711C51.2495 23.5383 51.1072 23.403 50.9252 23.305C50.7432 23.2023 50.5285 23.151 50.2812 23.151C50.0479 23.151 49.8379 23.2 49.6512 23.298C49.4645 23.3913 49.3199 23.5243 49.2172 23.697C49.1145 23.865 49.0632 24.061 49.0632 24.285C49.0632 24.509 49.1145 24.7143 49.2172 24.901C49.3245 25.083 49.4692 25.2277 49.6512 25.335C49.8379 25.4423 50.0525 25.496 50.2952 25.496ZM54.804 26.042C54.4073 26.042 54.0573 25.9603 53.754 25.797C53.4553 25.6337 53.222 25.4097 53.054 25.125C52.8906 24.8403 52.809 24.5137 52.809 24.145C52.809 23.7763 52.8883 23.4497 53.047 23.165C53.2103 22.8803 53.432 22.6587 53.712 22.5C53.9966 22.3367 54.3163 22.255 54.671 22.255C55.0303 22.255 55.3476 22.3343 55.623 22.493C55.8983 22.6517 56.113 22.8757 56.267 23.165C56.4256 23.4497 56.505 23.7833 56.505 24.166C56.505 24.194 56.5026 24.2267 56.498 24.264C56.498 24.3013 56.4956 24.3363 56.491 24.369H53.334V23.886H56.141L55.868 24.054C55.8726 23.816 55.8236 23.6037 55.721 23.417C55.6183 23.2303 55.476 23.0857 55.294 22.983C55.1166 22.8757 54.909 22.822 54.671 22.822C54.4376 22.822 54.23 22.8757 54.048 22.983C53.866 23.0857 53.7236 23.2327 53.621 23.424C53.5183 23.6107 53.467 23.8253 53.467 24.068V24.18C53.467 24.4273 53.523 24.649 53.635 24.845C53.7516 25.0363 53.9126 25.1857 54.118 25.293C54.3233 25.4003 54.559 25.454 54.825 25.454C55.0443 25.454 55.2426 25.4167 55.42 25.342C55.602 25.2673 55.7606 25.1553 55.896 25.006L56.267 25.44C56.099 25.636 55.889 25.7853 55.637 25.888C55.3896 25.9907 55.112 26.042 54.804 26.042ZM56.87 25.993L56.912 25.426C56.9446 25.4307 56.975 25.4353 57.003 25.44C57.031 25.4447 57.0566 25.447 57.08 25.447C57.2293 25.447 57.346 25.3957 57.43 25.293C57.5186 25.1903 57.584 25.055 57.626 24.887C57.668 24.7143 57.6983 24.5207 57.717 24.306C57.7356 24.0913 57.7496 23.8767 57.759 23.662L57.822 22.29H60.671V26H59.999V22.682L60.16 22.878H58.256L58.41 22.675L58.361 23.704C58.347 24.0307 58.3213 24.3363 58.284 24.621C58.2466 24.9057 58.1883 25.1553 58.109 25.37C58.0343 25.5847 57.9293 25.7527 57.794 25.874C57.6633 25.9953 57.493 26.056 57.283 26.056C57.2223 26.056 57.157 26.049 57.087 26.035C57.0216 26.0257 56.9493 26.0117 56.87 25.993ZM61.9703 26V22.29H62.6423V24.992L64.9173 22.29H65.5263V26H64.8543V23.298L62.5863 26H61.9703Z" fill="black"/>
</svg>
