<svg width="135" height="135" viewBox="0 0 135 135" fill="none" xmlns="http://www.w3.org/2000/svg">
<circle cx="67.0261" cy="67.0261" r="65.5261" fill="black" stroke="#1789C8" stroke-width="3"/>
<path d="M23.45 76.24C22.03 76.24 20.69 76.08 19.43 75.76C18.19 75.44 17.23 75.04 16.55 74.56L18.35 71.17C19.05 71.63 19.9 72 20.9 72.28C21.92 72.56 22.94 72.7 23.96 72.7C25.06 72.7 25.86 72.56 26.36 72.28C26.86 72 27.11 71.62 27.11 71.14C27.11 70.76 26.9 70.48 26.48 70.3C26.06 70.1 25.53 69.94 24.89 69.82C24.25 69.7 23.56 69.56 22.82 69.4C22.1 69.24 21.41 69.02 20.75 68.74C20.11 68.44 19.58 68.02 19.16 67.48C18.76 66.92 18.56 66.19 18.56 65.29C18.56 64.07 18.9 63.04 19.58 62.2C20.28 61.36 21.24 60.72 22.46 60.28C23.7 59.84 25.1 59.62 26.66 59.62C27.78 59.62 28.87 59.74 29.93 59.98C30.99 60.22 31.89 60.55 32.63 60.97L30.95 64.39C30.19 63.91 29.39 63.59 28.55 63.43C27.73 63.25 26.94 63.16 26.18 63.16C25.08 63.16 24.28 63.32 23.78 63.64C23.3 63.94 23.06 64.31 23.06 64.75C23.06 65.13 23.26 65.43 23.66 65.65C24.08 65.85 24.61 66.02 25.25 66.16C25.89 66.28 26.58 66.42 27.32 66.58C28.06 66.72 28.75 66.94 29.39 67.24C30.03 67.52 30.55 67.93 30.95 68.47C31.37 68.99 31.58 69.7 31.58 70.6C31.58 71.82 31.22 72.86 30.5 73.72C29.8 74.56 28.84 75.19 27.62 75.61C26.4 76.03 25.01 76.24 23.45 76.24ZM56.9675 59.62C58.3275 59.62 59.4775 59.91 60.4175 60.49C61.3575 61.05 62.0275 61.88 62.4275 62.98C62.8275 64.08 62.8575 65.44 62.5175 67.06L60.7475 76H56.0675L57.7775 67.39C58.0375 66.19 57.9575 65.27 57.5375 64.63C57.1175 63.99 56.3875 63.67 55.3475 63.67C54.2475 63.67 53.3375 64 52.6175 64.66C51.8975 65.3 51.3975 66.32 51.1175 67.72L49.4675 76H44.7875L46.4975 67.39C46.7375 66.19 46.6475 65.27 46.2275 64.63C45.8275 63.99 45.1075 63.67 44.0675 63.67C42.9675 63.67 42.0575 64 41.3375 64.66C40.6175 65.3 40.1075 66.34 39.8075 67.78L38.1875 76H33.5075L36.7175 59.86H41.1575L40.3175 63.97L39.5975 63.04C40.3375 61.88 41.2575 61.02 42.3575 60.46C43.4575 59.9 44.6275 59.62 45.8675 59.62C46.8675 59.62 47.7675 59.8 48.5675 60.16C49.3675 60.52 50.0175 61.06 50.5175 61.78C51.0375 62.48 51.3375 63.36 51.4175 64.42L49.6175 63.97C50.4175 62.55 51.4375 61.47 52.6775 60.73C53.9375 59.99 55.3675 59.62 56.9675 59.62ZM72.3209 76.24C71.0809 76.24 69.9309 75.96 68.8709 75.4C67.8109 74.82 66.9609 73.99 66.3209 72.91C65.6809 71.83 65.3609 70.53 65.3609 69.01C65.3609 67.65 65.5809 66.4 66.0209 65.26C66.4809 64.12 67.1209 63.13 67.9409 62.29C68.7609 61.45 69.7109 60.8 70.7909 60.34C71.8709 59.86 73.0309 59.62 74.2709 59.62C75.6109 59.62 76.7609 59.87 77.7209 60.37C78.6809 60.87 79.3909 61.65 79.8509 62.71C80.3309 63.75 80.5009 65.1 80.3609 66.76C80.2609 68.66 79.8709 70.33 79.1909 71.77C78.5109 73.19 77.5909 74.29 76.4309 75.07C75.2909 75.85 73.9209 76.24 72.3209 76.24ZM73.7609 72.37C74.6809 72.37 75.4909 72.15 76.1909 71.71C76.9109 71.25 77.4709 70.63 77.8709 69.85C78.2909 69.05 78.5009 68.12 78.5009 67.06C78.5009 65.96 78.1709 65.09 77.5109 64.45C76.8709 63.81 75.9709 63.49 74.8109 63.49C73.9109 63.49 73.1009 63.72 72.3809 64.18C71.6609 64.62 71.0909 65.24 70.6709 66.04C70.2709 66.82 70.0709 67.74 70.0709 68.8C70.0709 69.9 70.3909 70.77 71.0309 71.41C71.6909 72.05 72.6009 72.37 73.7609 72.37ZM76.9709 76L77.6009 72.79L78.6509 67.99L79.2809 63.19L79.9409 59.86H84.6209L81.4109 76H76.9709ZM109.204 59.62C110.564 59.62 111.714 59.91 112.654 60.49C113.594 61.05 114.264 61.88 114.664 62.98C115.064 64.08 115.094 65.44 114.754 67.06L112.984 76H108.304L110.014 67.39C110.274 66.19 110.194 65.27 109.774 64.63C109.354 63.99 108.624 63.67 107.584 63.67C106.484 63.67 105.574 64 104.854 64.66C104.134 65.3 103.634 66.32 103.354 67.72L101.704 76H97.0238L98.7338 67.39C98.9738 66.19 98.8838 65.27 98.4638 64.63C98.0638 63.99 97.3438 63.67 96.3038 63.67C95.2038 63.67 94.2938 64 93.5738 64.66C92.8538 65.3 92.3438 66.34 92.0438 67.78L90.4238 76H85.7438L88.9538 59.86H93.3938L92.5538 63.97L91.8338 63.04C92.5738 61.88 93.4938 61.02 94.5938 60.46C95.6938 59.9 96.8638 59.62 98.1038 59.62C99.1038 59.62 100.004 59.8 100.804 60.16C101.604 60.52 102.254 61.06 102.754 61.78C103.274 62.48 103.574 63.36 103.654 64.42L101.854 63.97C102.654 62.55 103.674 61.47 104.914 60.73C106.174 59.99 107.604 59.62 109.204 59.62Z" fill="#1789C8"/>
<path d="M38.24 86.06C37.7 86.06 37.2167 85.9433 36.79 85.71C36.37 85.4767 36.04 85.1567 35.8 84.75C35.56 84.3433 35.44 83.8767 35.44 83.35C35.44 82.8233 35.56 82.3567 35.8 81.95C36.04 81.5433 36.37 81.2267 36.79 81C37.2167 80.7667 37.7 80.65 38.24 80.65C38.72 80.65 39.1467 80.7467 39.52 80.94C39.9 81.1267 40.1933 81.4067 40.4 81.78L39.67 82.25C39.4967 81.99 39.2833 81.8 39.03 81.68C38.7833 81.5533 38.5167 81.49 38.23 81.49C37.8833 81.49 37.5733 81.5667 37.3 81.72C37.0267 81.8733 36.81 82.09 36.65 82.37C36.49 82.6433 36.41 82.97 36.41 83.35C36.41 83.73 36.49 84.06 36.65 84.34C36.81 84.62 37.0267 84.8367 37.3 84.99C37.5733 85.1433 37.8833 85.22 38.23 85.22C38.5167 85.22 38.7833 85.16 39.03 85.04C39.2833 84.9133 39.4967 84.72 39.67 84.46L40.4 84.92C40.1933 85.2867 39.9 85.57 39.52 85.77C39.1467 85.9633 38.72 86.06 38.24 86.06ZM42.6245 86V81.29L42.8645 81.54H40.6845V80.7H45.5245V81.54H43.3545L43.5845 81.29V86H42.6245ZM46.7762 88C46.5228 88 46.2762 87.9567 46.0362 87.87C45.7962 87.79 45.5895 87.67 45.4162 87.51L45.8262 86.79C45.9595 86.9167 46.1062 87.0133 46.2662 87.08C46.4262 87.1467 46.5962 87.18 46.7762 87.18C47.0095 87.18 47.2028 87.12 47.3562 87C47.5095 86.88 47.6528 86.6667 47.7862 86.36L48.1162 85.63L48.2162 85.51L50.2962 80.7H51.2362L48.6662 86.53C48.5128 86.9033 48.3395 87.1967 48.1462 87.41C47.9595 87.6233 47.7528 87.7733 47.5262 87.86C47.2995 87.9533 47.0495 88 46.7762 88ZM48.0362 86.17L45.6162 80.7H46.6162L48.6762 85.42L48.0362 86.17ZM55.5656 85.55V81.54H53.2656L53.2156 82.56C53.2023 82.8933 53.179 83.2167 53.1456 83.53C53.119 83.8367 53.0723 84.12 53.0056 84.38C52.9456 84.64 52.8556 84.8533 52.7356 85.02C52.6156 85.1867 52.4556 85.29 52.2556 85.33L51.3056 85.16C51.5123 85.1667 51.679 85.1 51.8056 84.96C51.9323 84.8133 52.029 84.6133 52.0956 84.36C52.169 84.1067 52.2223 83.82 52.2556 83.5C52.289 83.1733 52.3156 82.8367 52.3356 82.49L52.4156 80.7H56.5256V85.55H55.5656ZM51.0956 87.23V85.16H57.3356V87.23H56.4356V86H52.0056V87.23H51.0956ZM58.5863 86V80.7H59.5463V84.56L62.7962 80.7H63.6663V86H62.7062V82.14L59.4663 86H58.5863ZM68.9196 86V84.14L69.0696 84.32H67.3796C66.6729 84.32 66.1196 84.17 65.7196 83.87C65.3263 83.57 65.1296 83.1333 65.1296 82.56C65.1296 81.9467 65.3396 81.4833 65.7596 81.17C66.1863 80.8567 66.7529 80.7 67.4596 80.7H69.7796V86H68.9196ZM65.0796 86L66.5196 83.97H67.5096L66.1096 86H65.0796ZM68.9196 83.84V81.27L69.0696 81.54H67.4896C67.0496 81.54 66.7096 81.6233 66.4696 81.79C66.2296 81.95 66.1096 82.2167 66.1096 82.59C66.1096 83.2833 66.5563 83.63 67.4496 83.63H69.0696L68.9196 83.84ZM74.3382 86V80.7H75.3282L77.6082 84.62H77.2082L79.5482 80.7H80.4482V86H79.5782V81.78L79.7382 81.87L77.5982 85.4H77.1782L75.0282 81.8L75.2182 81.76V86H74.3382ZM84.6767 86.06C84.1101 86.06 83.6101 85.9433 83.1767 85.71C82.7501 85.4767 82.4167 85.1567 82.1767 84.75C81.9434 84.3433 81.8267 83.8767 81.8267 83.35C81.8267 82.8233 81.9401 82.3567 82.1667 81.95C82.4001 81.5433 82.7167 81.2267 83.1167 81C83.5234 80.7667 83.9801 80.65 84.4867 80.65C85.0001 80.65 85.4534 80.7633 85.8467 80.99C86.2401 81.2167 86.5467 81.5367 86.7667 81.95C86.9934 82.3567 87.1067 82.8333 87.1067 83.38C87.1067 83.42 87.1034 83.4667 87.0967 83.52C87.0967 83.5733 87.0934 83.6233 87.0867 83.67H82.5767V82.98H86.5867L86.1967 83.22C86.2034 82.88 86.1334 82.5767 85.9867 82.31C85.8401 82.0433 85.6367 81.8367 85.3767 81.69C85.1234 81.5367 84.8267 81.46 84.4867 81.46C84.1534 81.46 83.8567 81.5367 83.5967 81.69C83.3367 81.8367 83.1334 82.0467 82.9867 82.32C82.8401 82.5867 82.7667 82.8933 82.7667 83.24V83.4C82.7667 83.7533 82.8467 84.07 83.0067 84.35C83.1734 84.6233 83.4034 84.8367 83.6967 84.99C83.9901 85.1433 84.3267 85.22 84.7067 85.22C85.0201 85.22 85.3034 85.1667 85.5567 85.06C85.8167 84.9533 86.0434 84.7933 86.2367 84.58L86.7667 85.2C86.5267 85.48 86.2267 85.6933 85.8667 85.84C85.5134 85.9867 85.1167 86.06 84.6767 86.06ZM91.046 86.08C90.606 86.08 90.216 86.01 89.876 85.87C89.5427 85.73 89.256 85.5233 89.016 85.25C88.776 84.97 88.5927 84.62 88.466 84.2C88.346 83.7733 88.286 83.2733 88.286 82.7C88.286 82.2467 88.326 81.84 88.406 81.48C88.486 81.12 88.5993 80.8 88.746 80.52C88.8993 80.24 89.086 79.9967 89.306 79.79C89.5327 79.5833 89.786 79.4133 90.066 79.28C90.3527 79.14 90.666 79.0333 91.006 78.96L93.426 78.42L93.566 79.31L91.336 79.79C91.2027 79.8167 91.0427 79.8567 90.856 79.91C90.6693 79.9633 90.4793 80.0467 90.286 80.16C90.0927 80.2667 89.9127 80.4167 89.746 80.61C89.5793 80.8033 89.446 81.0567 89.346 81.37C89.246 81.6767 89.196 82.0567 89.196 82.51C89.196 82.6367 89.1993 82.7333 89.206 82.8C89.2127 82.8667 89.2193 82.9333 89.226 83C89.2393 83.0667 89.2493 83.1667 89.256 83.3L88.856 82.89C88.9627 82.5233 89.1327 82.2033 89.366 81.93C89.5993 81.6567 89.8793 81.4467 90.206 81.3C90.5393 81.1467 90.9027 81.07 91.296 81.07C91.7893 81.07 92.226 81.1767 92.606 81.39C92.9927 81.6033 93.296 81.8967 93.516 82.27C93.736 82.6433 93.846 83.07 93.846 83.55C93.846 84.0367 93.7293 84.4733 93.496 84.86C93.2693 85.24 92.946 85.54 92.526 85.76C92.106 85.9733 91.6127 86.08 91.046 86.08ZM91.136 85.28C91.476 85.28 91.776 85.2067 92.036 85.06C92.296 84.9067 92.4993 84.7033 92.646 84.45C92.7927 84.19 92.866 83.9 92.866 83.58C92.866 83.26 92.7927 82.9767 92.646 82.73C92.4993 82.4833 92.296 82.29 92.036 82.15C91.776 82.0033 91.4693 81.93 91.116 81.93C90.7827 81.93 90.4827 82 90.216 82.14C89.9493 82.2733 89.7427 82.4633 89.596 82.71C89.4493 82.95 89.376 83.23 89.376 83.55C89.376 83.87 89.4493 84.1633 89.596 84.43C89.7493 84.69 89.956 84.8967 90.216 85.05C90.4827 85.2033 90.7893 85.28 91.136 85.28ZM97.5771 86.06C97.0104 86.06 96.5104 85.9433 96.0771 85.71C95.6504 85.4767 95.3171 85.1567 95.0771 84.75C94.8438 84.3433 94.7271 83.8767 94.7271 83.35C94.7271 82.8233 94.8404 82.3567 95.0671 81.95C95.3004 81.5433 95.6171 81.2267 96.0171 81C96.4238 80.7667 96.8804 80.65 97.3871 80.65C97.9004 80.65 98.3538 80.7633 98.7471 80.99C99.1404 81.2167 99.4471 81.5367 99.6671 81.95C99.8938 82.3567 100.007 82.8333 100.007 83.38C100.007 83.42 100.004 83.4667 99.9971 83.52C99.9971 83.5733 99.9938 83.6233 99.9871 83.67H95.4771V82.98H99.4871L99.0971 83.22C99.1038 82.88 99.0338 82.5767 98.8871 82.31C98.7404 82.0433 98.5371 81.8367 98.2771 81.69C98.0238 81.5367 97.7271 81.46 97.3871 81.46C97.0538 81.46 96.7571 81.5367 96.4971 81.69C96.2371 81.8367 96.0338 82.0467 95.8871 82.32C95.7404 82.5867 95.6671 82.8933 95.6671 83.24V83.4C95.6671 83.7533 95.7471 84.07 95.9071 84.35C96.0738 84.6233 96.3038 84.8367 96.5971 84.99C96.8904 85.1433 97.2271 85.22 97.6071 85.22C97.9204 85.22 98.2038 85.1667 98.4571 85.06C98.7171 84.9533 98.9438 84.7933 99.1371 84.58L99.6671 85.2C99.4271 85.48 99.1271 85.6933 98.7671 85.84C98.4138 85.9867 98.0171 86.06 97.5771 86.06ZM100.529 85.99L100.589 85.18C100.635 85.1867 100.679 85.1933 100.719 85.2C100.759 85.2067 100.795 85.21 100.829 85.21C101.042 85.21 101.209 85.1367 101.329 84.99C101.455 84.8433 101.549 84.65 101.609 84.41C101.669 84.1633 101.712 83.8867 101.739 83.58C101.765 83.2733 101.785 82.9667 101.799 82.66L101.889 80.7H105.959V86H104.999V81.26L105.229 81.54H102.509L102.729 81.25L102.659 82.72C102.639 83.1867 102.602 83.6233 102.549 84.03C102.495 84.4367 102.412 84.7933 102.299 85.1C102.192 85.4067 102.042 85.6467 101.849 85.82C101.662 85.9933 101.419 86.08 101.119 86.08C101.032 86.08 100.939 86.07 100.839 86.05C100.745 86.0367 100.642 86.0167 100.529 85.99ZM107.815 86V80.7H108.775V84.56L112.025 80.7H112.895V86H111.935V82.14L108.695 86H107.815Z" fill="white"/>
</svg>
